#Comment line ignore any data following # character 
#Hierarchical Translation and Rotation (.htr) file 
[Header]	
#Header keywords are followed by a single value 
FileType HTR		#Single word string
DataType HTRS		#Translation followed by rotation and scale data
FileVersion 1		#integer
NumSegments 84		#integer
NumFrames 2		#integer
DataFrameRate 30		#integer, data frame rate in this file
EulerRotationOrder ZYX
CalibrationUnits mm
RotationUnits Degrees
GlobalAxisofGravity Y
BoneLengthAxis Y
ScaleFactor 1.00
[SegmentNames&Hierarchy]
#CHILD	PARENT
MASTER GLOBAL
root MASTER
chest root
L_mid_tent01 root
R_mid_tent01 root
spine01 root
Bip01_Neck chest
L_humerus chest
R_humerus chest
weapon_bone chest
Bip01_Head Bip01_Neck
eye_left_bone Bip01_Head
eye_right_bone Bip01_Head
L_forearm L_humerus
L_front_hand L_forearm
L_weapon_bone L_forearm
L_front_hand01_01 L_front_hand
L_front_hand02_01 L_front_hand
L_front_hand03_01 L_front_hand
L_front_hand01_02 L_front_hand01_01
L_front_hand02_02 L_front_hand02_01
L_front_hand03_02 L_front_hand03_01
R_forearm R_humerus
R_front_hand R_forearm
R_weapon_bone R_forearm
R_front_hand01_01 R_front_hand
R_front_hand02_01 R_front_hand
R_front_hand03_01 R_front_hand
R_front_hand01_02 R_front_hand01_01
R_front_hand02_02 R_front_hand02_01
R_front_hand03_02 R_front_hand03_01
null_rope01_connect L_mid_tent01
Rope1_Seg01 null_rope01_connect
Rope1_Seg02 Rope1_Seg01
Rope1_Seg03 Rope1_Seg02
Rope1_Seg04 Rope1_Seg03
Rope1_Seg05 Rope1_Seg04
Rope1_Seg06 Rope1_Seg05
Rope1_Seg07 Rope1_Seg06
Rope1_Seg09 Rope1_Seg07
L_mid_hand01 Rope1_Seg09
L_mid_hand02 Rope1_Seg09
L_mid_hand03 Rope1_Seg09
null_rope02_connect R_mid_tent01
Rope2_Seg01 null_rope02_connect
Rope2_Seg02 Rope2_Seg01
Rope2_Seg03 Rope2_Seg02
Rope2_Seg04 Rope2_Seg03
Rope2_Seg05 Rope2_Seg04
Rope2_Seg06 Rope2_Seg05
Rope2_Seg07 Rope2_Seg06
Rope2_Seg09 Rope2_Seg07
R_mid_hand01 Rope2_Seg09
R_mid_hand02 Rope2_Seg09
R_mid_hand03 Rope2_Seg09
spine02 spine01
spine03 spine02
pelvis spine03
null_rope03_connect pelvis
null_rope04_connect pelvis
Rope3_Seg01 null_rope03_connect
Rope3_Seg02 Rope3_Seg01
Rope3_Seg03 Rope3_Seg02
Rope3_Seg04 Rope3_Seg03
Rope3_Seg05 Rope3_Seg04
Rope3_Seg06 Rope3_Seg05
Rope3_Seg07 Rope3_Seg06
Rope3_Seg08 Rope3_Seg07
Rope3_Seg09 Rope3_Seg08
R_rear_hand01 Rope3_Seg09
R_rear_hand02 Rope3_Seg09
R_rear_hand03 Rope3_Seg09
Rope4_Seg01 null_rope04_connect
Rope4_Seg02 Rope4_Seg01
Rope4_Seg03 Rope4_Seg02
Rope4_Seg04 Rope4_Seg03
Rope4_Seg05 Rope4_Seg04
Rope4_Seg06 Rope4_Seg05
Rope4_Seg07 Rope4_Seg06
Rope4_Seg08 Rope4_Seg07
Rope4_Seg09 Rope4_Seg08
L_rear_hand01 Rope4_Seg09
L_rear_hand02 Rope4_Seg09
L_rear_hand03 Rope4_Seg09
[BasePosition]
#SegmentName Tx, Ty, Tz, Rx, Ry, Rz, BoneLength
MASTER 0.000000 0.000000 0.000000 -90.000000 0.000000 0.000000 10.000000 
root 0.000000 0.000000 0.000000 0.000000 0.000000 0.000000 10.000000 
chest 0.000000 0.000000 0.000000 0.000000 0.000000 0.000000 10.000000 
L_mid_tent01 0.000000 0.000000 0.000000 0.000000 0.000000 0.000000 10.000000 
R_mid_tent01 0.000000 0.000000 0.000000 0.000000 0.000000 0.000000 10.000000 
spine01 0.000000 0.000000 0.000000 0.000000 0.000000 0.000000 10.000000 
Bip01_Neck 0.000000 0.000000 0.000000 0.000000 0.000000 0.000000 10.000000 
L_humerus 0.000000 0.000000 0.000000 0.000000 0.000000 0.000000 10.000000 
R_humerus 0.000000 0.000000 0.000000 0.000000 0.000000 0.000000 10.000000 
weapon_bone 0.000000 0.000000 0.000000 0.000000 0.000000 0.000000 10.000000 
Bip01_Head 0.000000 0.000000 0.000000 0.000000 0.000000 0.000000 10.000000 
eye_left_bone 0.000000 0.000000 0.000000 0.000000 0.000000 0.000000 10.000000 
eye_right_bone 0.000000 0.000000 0.000000 0.000000 0.000000 0.000000 10.000000 
L_forearm 0.000000 0.000000 0.000000 0.000000 0.000000 0.000000 10.000000 
L_front_hand 0.000000 0.000000 0.000000 0.000000 0.000000 0.000000 10.000000 
L_weapon_bone 0.000000 0.000000 0.000000 0.000000 0.000000 0.000000 10.000000 
L_front_hand01_01 0.000000 0.000000 0.000000 0.000000 0.000000 0.000000 10.000000 
L_front_hand02_01 0.000000 0.000000 0.000000 0.000000 0.000000 0.000000 10.000000 
L_front_hand03_01 0.000000 0.000000 0.000000 0.000000 0.000000 0.000000 10.000000 
L_front_hand01_02 0.000000 0.000000 0.000000 0.000000 0.000000 0.000000 10.000000 
L_front_hand02_02 0.000000 0.000000 0.000000 0.000000 0.000000 0.000000 10.000000 
L_front_hand03_02 0.000000 0.000000 0.000000 0.000000 0.000000 0.000000 10.000000 
R_forearm 0.000000 0.000000 0.000000 0.000000 0.000000 0.000000 10.000000 
R_front_hand 0.000000 0.000000 0.000000 0.000000 0.000000 0.000000 10.000000 
R_weapon_bone 0.000000 0.000000 0.000000 0.000000 0.000000 0.000000 10.000000 
R_front_hand01_01 0.000000 0.000000 0.000000 0.000000 0.000000 0.000000 10.000000 
R_front_hand02_01 0.000000 0.000000 0.000000 0.000000 0.000000 0.000000 10.000000 
R_front_hand03_01 0.000000 0.000000 0.000000 0.000000 0.000000 0.000000 10.000000 
R_front_hand01_02 0.000000 0.000000 0.000000 0.000000 0.000000 0.000000 10.000000 
R_front_hand02_02 0.000000 0.000000 0.000000 0.000000 0.000000 0.000000 10.000000 
R_front_hand03_02 0.000000 0.000000 0.000000 0.000000 0.000000 0.000000 10.000000 
null_rope01_connect 0.000000 0.000000 0.000000 0.000000 0.000000 0.000000 10.000000 
Rope1_Seg01 0.000000 0.000000 0.000000 0.000000 0.000000 0.000000 10.000000 
Rope1_Seg02 0.000000 0.000000 0.000000 0.000000 0.000000 0.000000 10.000000 
Rope1_Seg03 0.000000 0.000000 0.000000 0.000000 0.000000 0.000000 10.000000 
Rope1_Seg04 0.000000 0.000000 0.000000 0.000000 0.000000 0.000000 10.000000 
Rope1_Seg05 0.000000 0.000000 0.000000 0.000000 0.000000 0.000000 10.000000 
Rope1_Seg06 0.000000 0.000000 0.000000 0.000000 0.000000 0.000000 10.000000 
Rope1_Seg07 0.000000 0.000000 0.000000 0.000000 0.000000 0.000000 10.000000 
Rope1_Seg09 0.000000 0.000000 0.000000 0.000000 0.000000 0.000000 10.000000 
L_mid_hand01 0.000000 0.000000 0.000000 0.000000 0.000000 0.000000 10.000000 
L_mid_hand02 0.000000 0.000000 0.000000 0.000000 0.000000 0.000000 10.000000 
L_mid_hand03 0.000000 0.000000 0.000000 0.000000 0.000000 0.000000 10.000000 
null_rope02_connect 0.000000 0.000000 0.000000 0.000000 0.000000 0.000000 10.000000 
Rope2_Seg01 0.000000 0.000000 0.000000 0.000000 0.000000 0.000000 10.000000 
Rope2_Seg02 0.000000 0.000000 0.000000 0.000000 0.000000 0.000000 10.000000 
Rope2_Seg03 0.000000 0.000000 0.000000 0.000000 0.000000 0.000000 10.000000 
Rope2_Seg04 0.000000 0.000000 0.000000 0.000000 0.000000 0.000000 10.000000 
Rope2_Seg05 0.000000 0.000000 0.000000 0.000000 0.000000 0.000000 10.000000 
Rope2_Seg06 0.000000 0.000000 0.000000 0.000000 0.000000 0.000000 10.000000 
Rope2_Seg07 0.000000 0.000000 0.000000 0.000000 0.000000 0.000000 10.000000 
Rope2_Seg09 0.000000 0.000000 0.000000 0.000000 0.000000 0.000000 10.000000 
R_mid_hand01 0.000000 0.000000 0.000000 0.000000 0.000000 0.000000 10.000000 
R_mid_hand02 0.000000 0.000000 0.000000 0.000000 0.000000 0.000000 10.000000 
R_mid_hand03 0.000000 0.000000 0.000000 0.000000 0.000000 0.000000 10.000000 
spine02 0.000000 0.000000 0.000000 0.000000 0.000000 0.000000 10.000000 
spine03 0.000000 0.000000 0.000000 0.000000 0.000000 0.000000 10.000000 
pelvis 0.000000 0.000000 0.000000 0.000000 0.000000 0.000000 10.000000 
null_rope03_connect 0.000000 0.000000 0.000000 0.000000 0.000000 0.000000 10.000000 
null_rope04_connect 0.000000 0.000000 0.000000 0.000000 0.000000 0.000000 10.000000 
Rope3_Seg01 0.000000 0.000000 0.000000 0.000000 0.000000 0.000000 10.000000 
Rope3_Seg02 0.000000 0.000000 0.000000 0.000000 0.000000 0.000000 10.000000 
Rope3_Seg03 0.000000 0.000000 0.000000 0.000000 0.000000 0.000000 10.000000 
Rope3_Seg04 0.000000 0.000000 0.000000 0.000000 0.000000 0.000000 10.000000 
Rope3_Seg05 0.000000 0.000000 0.000000 0.000000 0.000000 0.000000 10.000000 
Rope3_Seg06 0.000000 0.000000 0.000000 0.000000 0.000000 0.000000 10.000000 
Rope3_Seg07 0.000000 0.000000 0.000000 0.000000 0.000000 0.000000 10.000000 
Rope3_Seg08 0.000000 0.000000 0.000000 0.000000 0.000000 0.000000 10.000000 
Rope3_Seg09 0.000000 0.000000 0.000000 0.000000 0.000000 0.000000 10.000000 
R_rear_hand01 0.000000 0.000000 0.000000 0.000000 0.000000 0.000000 10.000000 
R_rear_hand02 0.000000 0.000000 0.000000 0.000000 0.000000 0.000000 10.000000 
R_rear_hand03 0.000000 0.000000 0.000000 0.000000 0.000000 0.000000 10.000000 
Rope4_Seg01 0.000000 0.000000 0.000000 0.000000 0.000000 0.000000 10.000000 
Rope4_Seg02 0.000000 0.000000 0.000000 0.000000 0.000000 0.000000 10.000000 
Rope4_Seg03 0.000000 0.000000 0.000000 0.000000 0.000000 0.000000 10.000000 
Rope4_Seg04 0.000000 0.000000 0.000000 0.000000 0.000000 0.000000 10.000000 
Rope4_Seg05 0.000000 0.000000 0.000000 0.000000 0.000000 0.000000 10.000000 
Rope4_Seg06 0.000000 0.000000 0.000000 0.000000 0.000000 0.000000 10.000000 
Rope4_Seg07 0.000000 0.000000 0.000000 0.000000 0.000000 0.000000 10.000000 
Rope4_Seg08 0.000000 0.000000 0.000000 0.000000 0.000000 0.000000 10.000000 
Rope4_Seg09 0.000000 0.000000 0.000000 0.000000 0.000000 0.000000 10.000000 
L_rear_hand01 0.000000 0.000000 0.000000 0.000000 0.000000 0.000000 10.000000 
L_rear_hand02 0.000000 0.000000 0.000000 0.000000 0.000000 0.000000 10.000000 
L_rear_hand03 0.000000 0.000000 0.000000 0.000000 0.000000 0.000000 10.000000 
#Beginning of Data. Separated by tabs
#Fr	Tx	Ty	Tz	Rx	Ry	Rz	SF
[MASTER]
25 -0.001364 9519.775391 416.183044 0.001660 0.001660 0.001660 9528.868164
26 -0.001410 9848.631836 316.494354 0.001660 0.001660 0.001660 9853.715820
[root]
25 -28.240726 -60.951847 1502.117554 -94.838432 -21.328466 -92.841324 1503.618774
26 -26.124893 -61.611332 1501.966919 -95.660782 -20.615980 -92.371681 1503.457153
[chest]
25 -84.512650 -34.090519 0.000000 -1.853987 1.306614 171.674377 91.129311
26 -84.512650 -34.090519 0.000000 -1.856651 1.279671 170.900925 91.129311
[L_mid_tent01]
25 27.299511 22.179369 -249.918701 -21.826242 21.747145 28.610188 252.381744
26 27.299526 22.179379 -249.918701 -23.635651 22.868298 27.124689 252.381744
[R_mid_tent01]
25 23.228794 24.509907 226.238495 -160.175766 -15.231543 29.533510 228.744751
26 23.228794 24.509907 226.238495 -158.515564 -16.615856 28.240513 228.744751
[spine01]
25 -0.361383 -0.195265 0.000000 0.002020 0.001195 28.809872 0.410763
26 -0.361383 -0.195265 0.000000 0.002016 0.001202 28.392666 0.410763
[Bip01_Neck]
25 165.484543 71.581718 0.000119 176.643677 -1.657967 43.431911 180.302734
26 165.484543 71.581718 0.000119 176.643677 -1.657967 43.431911 180.302734
[L_humerus]
25 -13.983130 -135.272980 -120.471481 -6.609587 65.461128 83.299477 181.680161
26 -13.983130 -135.272980 -120.471481 -6.529918 65.740288 83.390663 181.680161
[R_humerus]
25 -13.983309 -135.273102 125.287651 26.254761 -66.324509 69.445847 184.909012
26 -13.983309 -135.273102 125.287651 26.372906 -66.625214 69.322395 184.909012
[weapon_bone]
25 235.964890 -300.705902 0.000000 0.000000 -89.951546 -128.212341 382.234833
26 235.964890 -300.705902 0.000000 0.000000 -89.951546 -128.212341 382.234833
[Bip01_Head]
25 213.326416 186.042175 7.559205 5.200446 6.151311 -43.834991 283.155396
26 213.330078 186.031998 7.688930 5.194848 6.111748 -43.836132 283.154999
[eye_left_bone]
25 -24.626970 125.451866 -64.772606 0.000000 -90.000000 -99.840431 143.318359
26 -24.626970 125.451866 -64.772606 0.000000 -90.000000 -99.840431 143.318359
[eye_right_bone]
25 -24.626970 125.451866 64.327362 0.000000 -89.965736 80.156380 143.117676
26 -24.626970 125.451866 64.327362 0.000000 -89.965736 80.156380 143.117676
[L_forearm]
25 322.776093 0.000000 -0.000119 0.000419 -0.002309 -110.579193 322.776093
26 322.776093 0.000000 -0.000119 0.000417 -0.002310 -110.481010 322.776093
[L_front_hand]
25 241.149185 -0.042021 -3.300071 -178.667953 -1.835447 -27.422350 241.171753
26 241.149185 -0.042021 -3.300071 -178.667953 -1.835447 -27.422350 241.171753
[L_weapon_bone]
25 156.183838 0.000000 0.000000 0.000014 0.000007 0.000001 156.183838
26 156.183838 0.000000 0.000000 0.000014 0.000007 0.000001 156.183838
[L_front_hand01_01]
25 86.095154 20.947098 -0.655860 -0.335131 -0.500211 71.723793 88.609184
26 86.095154 20.947098 -0.655860 -0.342291 -0.495149 72.451675 88.609184
[L_front_hand02_01]
25 86.935165 -11.437475 24.513514 149.028946 -58.148323 -55.100948 91.046425
26 86.935165 -11.437475 24.513514 150.048462 -58.519783 -56.305634 91.046425
[L_front_hand03_01]
25 86.637497 -14.123976 -20.424902 -148.918823 56.366688 -56.764717 90.126129
26 86.637497 -14.123976 -20.424902 -149.869949 56.734909 -57.903400 90.126129
[L_front_hand01_02]
25 71.020905 -0.000179 0.000030 0.000321 -0.002325 -105.725021 71.020905
26 71.020905 -0.000179 0.000030 0.000322 -0.002325 -105.778519 71.020905
[L_front_hand02_02]
25 71.020927 -0.000119 0.000060 0.000321 -0.002325 -105.725021 71.020927
26 71.020927 -0.000119 0.000060 0.000322 -0.002325 -105.778519 71.020927
[L_front_hand03_02]
25 71.020905 -0.000060 0.000060 0.000321 -0.002325 -105.725021 71.020905
26 71.020905 -0.000060 0.000060 0.000322 -0.002325 -105.778519 71.020905
[R_forearm]
25 322.776428 -0.000060 0.000030 0.201431 0.067207 -109.226761 322.776428
26 322.776428 -0.000060 0.000030 0.201486 0.067041 -109.132156 322.776428
[R_front_hand]
25 238.847015 -0.006795 2.210259 -2.635298 -10.645461 -26.312506 238.857239
26 238.847015 -0.006795 2.210259 -2.635298 -10.645461 -26.312506 238.857239
[R_weapon_bone]
25 155.664093 0.002503 -0.000030 0.003487 0.001180 -90.988930 155.664078
26 155.664093 0.002503 -0.000030 0.003487 0.001180 -90.988930 155.664078
[R_front_hand01_01]
25 87.624611 14.231146 22.918642 -151.998260 -59.169334 58.688148 91.683487
26 87.624611 14.231146 22.918642 -153.375839 -59.587151 60.286892 91.683487
[R_front_hand02_01]
25 89.356956 14.367283 -19.491137 152.130127 57.525928 60.828327 92.579636
26 89.356956 14.367283 -19.491137 153.420532 57.944527 62.356834 92.579636
[R_front_hand03_01]
25 87.286232 -22.307278 -0.143439 0.147862 -0.431521 -74.042168 90.091743
26 87.286232 -22.307278 -0.143439 0.155221 -0.427320 -74.955528 90.091743
[R_front_hand01_02]
25 71.020905 0.000060 0.000119 0.002323 -0.000334 106.381714 71.020905
26 71.020905 0.000060 0.000119 0.002323 -0.000334 106.381714 71.020905
[R_front_hand02_02]
25 71.020844 -0.000030 -0.000119 0.002323 -0.000334 106.381714 71.020836
26 71.020844 -0.000030 -0.000119 0.002323 -0.000334 106.381714 71.020836
[R_front_hand03_02]
25 71.020905 0.000000 0.000030 0.002323 -0.000334 106.381714 71.020905
26 71.020905 0.000000 0.000030 0.002323 -0.000334 106.381714 71.020905
[null_rope01_connect]
25 328.732483 0.000000 -0.000238 -143.042419 -53.214672 -138.907394 328.732483
26 328.732483 0.000000 -0.000238 -144.327866 -50.731598 -137.298233 328.732483
[Rope1_Seg01]
25 -0.000016 -0.000033 0.000065 126.226364 27.190987 178.299149 0.000075
26 -0.000015 -0.000031 0.000062 126.680626 30.609808 173.535599 0.000071
[Rope1_Seg02]
25 139.999863 -0.000179 0.000000 -0.296055 1.551726 -1.164717 139.999863
26 139.999863 -0.000179 0.000000 -0.076248 1.014925 -0.978309 139.999863
[Rope1_Seg03]
25 139.999924 0.000060 -0.000060 -0.441456 2.058401 -1.534786 139.999924
26 139.999924 0.000060 -0.000060 -0.111862 1.321035 -1.265837 139.999924
[Rope1_Seg04]
25 139.999924 -0.000060 -0.000119 -0.792995 3.608535 -2.913400 139.999924
26 139.999924 -0.000060 -0.000119 -0.170403 1.844058 -1.776883 139.999924
[Rope1_Seg05]
25 139.999832 0.000119 -0.000060 -2.083104 7.493940 -6.507924 139.999832
26 139.999832 0.000119 -0.000060 -0.463698 6.006661 -6.593309 139.999832
[Rope1_Seg06]
25 139.999954 0.000119 -0.000060 -2.094833 -2.339942 5.176718 139.999954
26 139.999954 0.000119 -0.000060 -0.753980 2.320706 -1.646121 139.999954
[Rope1_Seg07]
25 139.999985 0.000060 0.000000 -3.236499 -13.595303 18.212574 139.999985
26 139.999985 0.000060 0.000000 -2.611217 -11.786296 15.639832 139.999985
[Rope1_Seg09]
25 121.602913 0.000119 -0.000089 -89.793175 -1.359789 0.847147 121.602913
26 121.602913 0.000119 -0.000089 -89.793175 -1.359789 0.847147 121.602913
[L_mid_hand01]
25 103.859421 1.038730 8.195221 130.544373 -67.584534 -38.866940 104.187431
26 103.859421 1.038730 8.195221 130.544373 -67.584534 -38.866943 104.187431
[L_mid_hand02]
25 105.572853 -4.139662 -10.864139 -168.923172 43.409309 -73.498886 106.211075
26 105.572853 -4.139662 -10.864139 -168.923172 43.409309 -73.498894 106.211075
[L_mid_hand03]
25 104.641464 17.579376 -3.913581 -6.012629 17.808178 74.893669 106.179977
26 104.641464 17.579376 -3.913581 -6.012627 17.808178 74.893677 106.179977
[null_rope02_connect]
25 328.732849 0.000179 -0.000119 -157.904068 71.223434 -57.336159 328.732849
26 328.732849 0.000179 -0.000119 -155.272919 69.770233 -54.677177 328.732849
[Rope2_Seg01]
25 0.000060 0.000065 0.000000 -58.386765 18.086411 -4.462213 0.000089
26 0.000061 0.000062 0.000000 -61.966805 21.275351 -1.680227 0.000087
[Rope2_Seg02]
25 139.999741 -0.000060 -0.000119 -1.103288 4.151436 -1.127149 139.999756
26 139.999741 -0.000060 -0.000119 -1.938845 3.459251 -0.027196 139.999756
[Rope2_Seg03]
25 140.000107 0.000030 0.000000 -2.456487 6.392067 -1.612000 140.000107
26 140.000107 0.000030 0.000000 -3.453637 4.885618 0.126667 140.000107
[Rope2_Seg04]
25 139.999802 0.000000 -0.000060 -17.366690 15.338634 -3.505389 139.999802
26 139.999802 0.000000 -0.000060 -8.761439 8.411874 0.584582 139.999802
[Rope2_Seg05]
25 139.999985 -0.000060 0.000119 -136.830276 29.866076 2.561256 139.999985
26 139.999985 -0.000060 0.000119 -75.513222 24.669466 4.670145 139.999985
[Rope2_Seg06]
25 139.999893 -0.000030 -0.000119 104.548775 18.204395 -17.805559 139.999893
26 139.999893 -0.000030 -0.000119 25.748844 -3.501676 -6.323075 139.999893
[Rope2_Seg07]
25 139.999893 0.000060 -0.000060 37.575520 -14.434231 -8.609735 139.999893
26 139.999893 0.000060 -0.000060 46.587070 -13.265963 -18.360003 139.999893
[Rope2_Seg09]
25 121.338966 0.000089 -0.000060 33.793236 -1.359788 -0.847141 121.338966
26 121.338966 0.000089 -0.000060 33.793236 -1.359788 -0.847141 121.338966
[R_mid_hand01]
25 104.680779 11.144459 -10.335981 -16.212063 45.237247 70.462852 105.778534
26 104.680779 11.144459 -10.335981 -16.212057 45.237247 70.462868 105.778534
[R_mid_hand02]
25 104.070427 2.443552 8.231699 49.067368 -67.749771 39.286453 104.424065
26 104.070427 2.443552 8.231699 49.067379 -67.749794 39.286469 104.424065
[R_mid_hand03]
25 106.028137 -11.221827 -5.996406 -177.101105 15.551029 -76.585594 106.788818
26 106.028137 -11.221827 -5.996406 -177.101105 15.551026 -76.585571 106.788818
[spine02]
25 129.756927 0.001550 0.000119 0.473035 -4.032232 -14.586387 129.756927
26 129.756927 0.001550 0.000119 0.463240 -4.033420 -14.447600 129.756927
[spine03]
25 78.614319 0.081569 -4.898999 1.964159 3.798764 17.520529 78.766853
26 78.614326 0.081573 -4.898998 1.958530 3.801418 17.431726 78.766861
[pelvis]
25 169.435242 0.051022 0.000000 -0.068685 -0.178378 16.208389 169.435257
26 169.435242 0.051022 0.000000 -0.067588 -0.178602 16.027836 169.435257
[null_rope03_connect]
25 -1.257226 -2.466202 137.391083 -126.342682 -84.489960 -170.343872 137.418976
26 -1.257226 -2.466202 137.391083 -133.985855 -84.147972 -162.858932 137.418976
[null_rope04_connect]
25 -1.259640 -2.480268 -137.844437 -126.342682 -84.489960 -170.343872 137.872513
26 -1.259640 -2.480268 -137.844437 -133.985855 -84.147972 -162.858932 137.872513
[Rope3_Seg01]
25 -0.000033 0.000000 -0.000087 -116.278374 17.018457 -39.032650 0.000093
26 -0.000032 0.000000 -0.000091 -116.343887 18.737988 -40.556519 0.000096
[Rope3_Seg02]
25 139.999924 -0.000119 0.000060 4.473425 -7.158216 3.913106 139.999924
26 139.999924 -0.000119 0.000060 4.698023 -8.473241 3.942820 139.999924
[Rope3_Seg03]
25 139.999924 -0.000119 0.000119 7.019983 -11.406783 7.527982 139.999924
26 139.999924 -0.000119 0.000119 6.965787 -12.258824 7.272273 139.999924
[Rope3_Seg04]
25 139.999924 0.000119 0.000000 10.480530 -23.911339 20.594698 139.999924
26 139.999924 0.000119 0.000000 8.878003 -18.582600 16.523024 139.999924
[Rope3_Seg05]
25 139.999924 -0.000238 0.000060 0.382003 1.514499 3.316152 139.999924
26 139.999924 -0.000238 0.000060 3.283084 -6.957250 4.264334 139.999924
[Rope3_Seg06]
25 139.999893 -0.000119 -0.000060 -4.787116 10.149632 -8.326370 139.999893
26 139.999893 -0.000119 -0.000060 -0.076099 -0.470164 -2.748090 139.999893
[Rope3_Seg07]
25 139.999771 0.000060 -0.000119 -0.864398 3.660693 -1.550083 139.999771
26 139.999771 0.000060 -0.000119 1.076314 -1.223174 0.336408 139.999771
[Rope3_Seg08]
25 139.999985 -0.000060 0.000000 -0.269280 2.289533 -0.933697 139.999985
26 139.999985 -0.000060 0.000000 0.875776 -0.712143 0.208897 139.999985
[Rope3_Seg09]
25 90.185997 -0.000179 -0.000060 89.793228 -1.359877 -0.847183 90.185997
26 90.185997 -0.000179 -0.000060 89.793228 -1.359877 -0.847183 90.185997
[R_rear_hand01]
25 103.366196 -6.073594 -10.757982 -177.714203 24.565960 -73.910950 104.101845
26 103.366196 -6.073594 -10.757982 -177.714203 24.565966 -73.910957 104.101845
[R_rear_hand02]
25 100.509819 12.039542 -7.992327 -12.874829 36.868488 72.167213 101.543350
26 100.509819 12.039542 -7.992327 -12.874831 36.868481 72.167213 101.543350
[R_rear_hand03]
25 101.539970 5.215704 5.435467 71.484581 -71.816628 21.513813 101.819031
26 101.539970 5.215704 5.435467 71.484573 -71.816628 21.513819 101.819031
[Rope4_Seg01]
25 0.000010 0.000038 -0.000114 30.909533 26.752232 -140.312119 0.000121
26 0.000010 0.000038 -0.000114 32.300686 29.340420 -136.924911 0.000121
[Rope4_Seg02]
25 139.999985 0.000060 0.000119 -3.126597 1.632381 -6.706700 139.999985
26 139.999985 0.000060 0.000119 -2.691404 -0.054399 -7.650896 139.999985
[Rope4_Seg03]
25 139.999924 0.000000 -0.000238 -7.167974 4.807065 -13.342046 139.999924
26 139.999924 0.000000 -0.000238 -5.951117 1.129712 -13.150492 139.999924
[Rope4_Seg04]
25 139.999985 0.000000 0.000119 -16.046238 13.249065 -27.310171 139.999985
26 139.999985 0.000000 0.000119 -15.196158 5.008089 -25.507095 139.999985
[Rope4_Seg05]
25 139.999802 -0.000060 -0.000119 9.713131 -24.673225 11.268272 139.999802
26 139.999802 -0.000060 -0.000119 1.447277 -8.021251 -1.736113 139.999802
[Rope4_Seg06]
25 139.999924 0.000000 0.000060 7.352556 -8.518929 6.205821 139.999924
26 139.999924 0.000000 0.000060 1.264451 -3.066749 0.140973 139.999924
[Rope4_Seg07]
25 139.999802 0.000000 0.000000 3.833234 -3.526241 2.898977 139.999802
26 139.999802 0.000000 0.000000 0.096967 -1.194711 -0.602764 139.999802
[Rope4_Seg08]
25 139.999924 0.000000 0.000119 0.779965 -1.845358 1.740194 139.999924
26 139.999924 0.000000 0.000119 -1.475101 -0.690298 -0.345585 139.999924
[Rope4_Seg09]
25 90.185791 0.000060 0.000060 -135.617828 2.228885 0.850567 90.185791
26 90.185791 0.000060 0.000060 -135.617828 2.228885 0.850567 90.185791
[L_rear_hand01]
25 101.696655 -8.392275 -7.654577 -12.874837 -36.868492 107.832779 102.329041
26 101.696655 -8.392275 -7.654577 -12.874829 -36.868488 107.832764 102.329041
[L_rear_hand02]
25 102.726799 -1.568258 5.773216 71.484581 71.816628 158.486160 102.900848
26 102.726799 -1.568258 5.773216 71.484581 71.816628 158.486160 102.900848
[L_rear_hand03]
25 104.552910 9.721220 -10.420293 -177.714203 -24.565966 -106.089035 105.519653
26 104.552910 9.721220 -10.420293 -177.714203 -24.565960 -106.089035 105.519653
